<mxfile host="app.diagrams.net" modified="2024-01-31T14:43:06.274Z" agent="Mozilla/5.0 (X11; Ubuntu; Linux x86_64; rv:109.0) Gecko/20100101 Firefox/111.0" etag="z4_o4g2qh5WSsvdw0aBd" version="23.0.2" type="github">
  <diagram name="Page-1" id="kMYHpVpJY9JqcPuh49Y1">
    <mxGraphModel dx="819" dy="454" grid="1" gridSize="10" guides="1" tooltips="1" connect="1" arrows="1" fold="1" page="1" pageScale="1" pageWidth="850" pageHeight="1100" math="1" shadow="0">
      <root>
        <mxCell id="0" />
        <mxCell id="1" parent="0" />
        <mxCell id="3SwlQdrmeQlM3dl84obM-1" value="" style="rounded=0;whiteSpace=wrap;html=1;" parent="1" vertex="1">
          <mxGeometry x="140" y="140" width="360" height="570" as="geometry" />
        </mxCell>
        <mxCell id="3SwlQdrmeQlM3dl84obM-2" value="" style="endArrow=none;html=1;rounded=0;entryX=0.25;entryY=0;entryDx=0;entryDy=0;exitX=0.25;exitY=1;exitDx=0;exitDy=0;" parent="1" edge="1">
          <mxGeometry width="50" height="50" relative="1" as="geometry">
            <mxPoint x="180" y="710" as="sourcePoint" />
            <mxPoint x="180" y="140" as="targetPoint" />
            <Array as="points" />
          </mxGeometry>
        </mxCell>
        <mxCell id="3SwlQdrmeQlM3dl84obM-3" value="&lt;div style=&quot;font-size: 4px;&quot;&gt;MIPS GP registers (32)&lt;br style=&quot;font-size: 4px;&quot;&gt;&lt;/div&gt;" style="text;strokeColor=none;align=center;fillColor=none;html=1;verticalAlign=middle;whiteSpace=wrap;rounded=0;fontSize=4;" parent="1" vertex="1">
          <mxGeometry x="150" y="143.65" width="27.5" height="12.69" as="geometry" />
        </mxCell>
        <mxCell id="3SwlQdrmeQlM3dl84obM-4" value="" style="line;strokeWidth=4;html=1;perimeter=backbonePerimeter;points=[];outlineConnect=0;" parent="1" vertex="1">
          <mxGeometry x="140" y="160" width="360" height="10" as="geometry" />
        </mxCell>
        <mxCell id="3SwlQdrmeQlM3dl84obM-5" value="Columns 80 + 2" style="text;html=1;strokeColor=none;fillColor=none;align=center;verticalAlign=middle;whiteSpace=wrap;rounded=0;" parent="1" vertex="1">
          <mxGeometry x="60" y="138.17" width="60" height="30" as="geometry" />
        </mxCell>
        <mxCell id="3SwlQdrmeQlM3dl84obM-6" value="" style="endArrow=none;html=1;rounded=0;entryX=0.5;entryY=0;entryDx=0;entryDy=0;exitX=0.5;exitY=1;exitDx=0;exitDy=0;" parent="1" edge="1">
          <mxGeometry width="50" height="50" relative="1" as="geometry">
            <mxPoint x="220" y="710" as="sourcePoint" />
            <mxPoint x="220" y="140.00000000000006" as="targetPoint" />
            <Array as="points">
              <mxPoint x="220" y="150" />
            </Array>
          </mxGeometry>
        </mxCell>
        <mxCell id="3SwlQdrmeQlM3dl84obM-7" value="&lt;div style=&quot;font-size: 4px;&quot;&gt;Low/Hi registers (2)&lt;br style=&quot;font-size: 4px;&quot;&gt;&lt;/div&gt;" style="text;html=1;strokeColor=none;fillColor=none;align=center;verticalAlign=middle;whiteSpace=wrap;rounded=0;fontSize=4;" parent="1" vertex="1">
          <mxGeometry x="190" y="147.5" width="17.68" height="8.84" as="geometry" />
        </mxCell>
        <mxCell id="POlr-6bYtFFYUOJAmtRa-1" value="Current IP" style="text;html=1;strokeColor=none;fillColor=none;align=center;verticalAlign=middle;whiteSpace=wrap;rounded=0;fontSize=4;" parent="1" vertex="1">
          <mxGeometry x="220" y="147.5" width="27.68" height="8.84" as="geometry" />
        </mxCell>
        <mxCell id="POlr-6bYtFFYUOJAmtRa-2" value="Next IP" style="text;html=1;strokeColor=none;fillColor=none;align=center;verticalAlign=middle;whiteSpace=wrap;rounded=0;fontSize=4;" parent="1" vertex="1">
          <mxGeometry x="250" y="150" width="27.68" height="6.34" as="geometry" />
        </mxCell>
        <mxCell id="POlr-6bYtFFYUOJAmtRa-3" value="&lt;div&gt;Heap Pointer&lt;/div&gt;" style="text;html=1;strokeColor=none;fillColor=none;align=center;verticalAlign=middle;whiteSpace=wrap;rounded=0;fontSize=4;aspect=fixed;" parent="1" vertex="1">
          <mxGeometry x="280" y="145" width="32.5" height="16.25" as="geometry" />
        </mxCell>
        <mxCell id="POlr-6bYtFFYUOJAmtRa-4" value="" style="endArrow=none;html=1;rounded=0;entryX=0.5;entryY=0;entryDx=0;entryDy=0;exitX=0.5;exitY=1;exitDx=0;exitDy=0;" parent="1" edge="1">
          <mxGeometry width="50" height="50" relative="1" as="geometry">
            <mxPoint x="250" y="710" as="sourcePoint" />
            <mxPoint x="250" y="140.00000000000006" as="targetPoint" />
            <Array as="points">
              <mxPoint x="250" y="150" />
            </Array>
          </mxGeometry>
        </mxCell>
        <mxCell id="POlr-6bYtFFYUOJAmtRa-5" value="" style="endArrow=none;html=1;rounded=0;entryX=0.5;entryY=0;entryDx=0;entryDy=0;exitX=0.5;exitY=1;exitDx=0;exitDy=0;" parent="1" edge="1">
          <mxGeometry width="50" height="50" relative="1" as="geometry">
            <mxPoint x="280" y="710" as="sourcePoint" />
            <mxPoint x="280" y="140.00000000000006" as="targetPoint" />
            <Array as="points">
              <mxPoint x="280" y="150" />
            </Array>
          </mxGeometry>
        </mxCell>
        <mxCell id="POlr-6bYtFFYUOJAmtRa-7" value="" style="endArrow=none;html=1;rounded=0;entryX=0.25;entryY=0;entryDx=0;entryDy=0;exitX=0.25;exitY=1;exitDx=0;exitDy=0;" parent="1" edge="1">
          <mxGeometry width="50" height="50" relative="1" as="geometry">
            <mxPoint x="312.5" y="710" as="sourcePoint" />
            <mxPoint x="312.5" y="140" as="targetPoint" />
            <Array as="points" />
          </mxGeometry>
        </mxCell>
        <mxCell id="POlr-6bYtFFYUOJAmtRa-9" value="&lt;div&gt;Preimage key (8)&lt;/div&gt;" style="text;html=1;strokeColor=none;fillColor=none;align=center;verticalAlign=middle;whiteSpace=wrap;rounded=0;fontSize=4;" parent="1" vertex="1">
          <mxGeometry x="315" y="145" width="25" height="12.5" as="geometry" />
        </mxCell>
        <mxCell id="POlr-6bYtFFYUOJAmtRa-10" value="Preimage offset" style="text;html=1;strokeColor=none;fillColor=none;align=center;verticalAlign=middle;whiteSpace=wrap;rounded=0;fontSize=4;aspect=fixed;" parent="1" vertex="1">
          <mxGeometry x="342.5" y="145" width="27.5" height="13.75" as="geometry" />
        </mxCell>
        <mxCell id="POlr-6bYtFFYUOJAmtRa-11" value="" style="endArrow=none;html=1;rounded=0;entryX=0.25;entryY=0;entryDx=0;entryDy=0;exitX=0.25;exitY=1;exitDx=0;exitDy=0;" parent="1" edge="1">
          <mxGeometry width="50" height="50" relative="1" as="geometry">
            <mxPoint x="342.5" y="710" as="sourcePoint" />
            <mxPoint x="342.5" y="140" as="targetPoint" />
            <Array as="points" />
          </mxGeometry>
        </mxCell>
        <mxCell id="POlr-6bYtFFYUOJAmtRa-12" value="" style="endArrow=none;html=1;rounded=0;entryX=0.25;entryY=0;entryDx=0;entryDy=0;exitX=0.25;exitY=1;exitDx=0;exitDy=0;" parent="1" edge="1">
          <mxGeometry width="50" height="50" relative="1" as="geometry">
            <mxPoint x="372.5" y="710" as="sourcePoint" />
            <mxPoint x="372.5" y="140" as="targetPoint" />
            <Array as="points" />
          </mxGeometry>
        </mxCell>
        <mxCell id="POlr-6bYtFFYUOJAmtRa-13" value="Temporary variables (34)" style="text;html=1;strokeColor=none;fillColor=none;align=center;verticalAlign=middle;whiteSpace=wrap;rounded=0;fontSize=4;aspect=fixed;" parent="1" vertex="1">
          <mxGeometry x="380" y="145.05" width="27.5" height="13.75" as="geometry" />
        </mxCell>
        <mxCell id="POlr-6bYtFFYUOJAmtRa-14" value="" style="endArrow=none;html=1;rounded=0;entryX=0.25;entryY=0;entryDx=0;entryDy=0;exitX=0.25;exitY=1;exitDx=0;exitDy=0;" parent="1" edge="1">
          <mxGeometry width="50" height="50" relative="1" as="geometry">
            <mxPoint x="420" y="710" as="sourcePoint" />
            <mxPoint x="420" y="140" as="targetPoint" />
            <Array as="points">
              <mxPoint x="420" y="430" />
              <mxPoint x="420" y="290" />
            </Array>
          </mxGeometry>
        </mxCell>
        <mxCell id="POlr-6bYtFFYUOJAmtRa-24" value="" style="endArrow=classic;html=1;rounded=0;entryX=0.097;entryY=-0.001;entryDx=0;entryDy=0;entryPerimeter=0;" parent="1" target="3SwlQdrmeQlM3dl84obM-1" edge="1">
          <mxGeometry width="50" height="50" relative="1" as="geometry">
            <mxPoint x="260" y="90" as="sourcePoint" />
            <mxPoint x="360" y="180" as="targetPoint" />
          </mxGeometry>
        </mxCell>
        <mxCell id="POlr-6bYtFFYUOJAmtRa-25" value="" style="endArrow=classic;html=1;rounded=0;entryX=0.184;entryY=-0.001;entryDx=0;entryDy=0;entryPerimeter=0;" parent="1" target="3SwlQdrmeQlM3dl84obM-1" edge="1">
          <mxGeometry width="50" height="50" relative="1" as="geometry">
            <mxPoint x="260" y="90" as="sourcePoint" />
            <mxPoint x="186" y="149" as="targetPoint" />
          </mxGeometry>
        </mxCell>
        <mxCell id="POlr-6bYtFFYUOJAmtRa-26" value="" style="endArrow=classic;html=1;rounded=0;entryX=0.264;entryY=-0.003;entryDx=0;entryDy=0;entryPerimeter=0;" parent="1" target="3SwlQdrmeQlM3dl84obM-1" edge="1">
          <mxGeometry width="50" height="50" relative="1" as="geometry">
            <mxPoint x="260" y="90" as="sourcePoint" />
            <mxPoint x="218" y="149" as="targetPoint" />
          </mxGeometry>
        </mxCell>
        <mxCell id="POlr-6bYtFFYUOJAmtRa-27" value="Polynomials of degree DOMAIN_SIZE" style="text;html=1;strokeColor=none;fillColor=none;align=center;verticalAlign=middle;whiteSpace=wrap;rounded=0;" parent="1" vertex="1">
          <mxGeometry x="207.68" y="50" width="172.32" height="30" as="geometry" />
        </mxCell>
        <mxCell id="POlr-6bYtFFYUOJAmtRa-28" value="" style="endArrow=none;html=1;rounded=0;entryX=0.25;entryY=0;entryDx=0;entryDy=0;exitX=0.25;exitY=1;exitDx=0;exitDy=0;" parent="1" edge="1">
          <mxGeometry width="50" height="50" relative="1" as="geometry">
            <mxPoint x="460" y="710" as="sourcePoint" />
            <mxPoint x="460" y="140" as="targetPoint" />
            <Array as="points">
              <mxPoint x="460" y="430" />
              <mxPoint x="460" y="290" />
            </Array>
          </mxGeometry>
        </mxCell>
        <mxCell id="POlr-6bYtFFYUOJAmtRa-29" value="Instruction Counter" style="text;html=1;strokeColor=none;fillColor=none;align=center;verticalAlign=middle;whiteSpace=wrap;rounded=0;fontSize=4;aspect=fixed;" parent="1" vertex="1">
          <mxGeometry x="425" y="147.5" width="27.5" height="13.75" as="geometry" />
        </mxCell>
        <mxCell id="POlr-6bYtFFYUOJAmtRa-30" value="System error" style="text;html=1;strokeColor=none;fillColor=none;align=center;verticalAlign=middle;whiteSpace=wrap;rounded=0;fontSize=4;aspect=fixed;" parent="1" vertex="1">
          <mxGeometry x="470" y="146.25" width="27.5" height="13.75" as="geometry" />
        </mxCell>
        <mxCell id="uvInf3OIVlEMV9nhA1Ra-5" value="&lt;div align=&quot;left&quot;&gt;Prover:&lt;/div&gt;&lt;div align=&quot;left&quot;&gt;1. Will evaluate all polynomials on the domain $\omega^{i}$&lt;br&gt;&lt;/div&gt;&lt;div align=&quot;left&quot;&gt;2. Will commit to all polynomials&lt;/div&gt;" style="text;html=1;strokeColor=none;fillColor=none;align=left;verticalAlign=middle;whiteSpace=wrap;rounded=0;" vertex="1" parent="1">
          <mxGeometry x="570" y="20" width="220" height="130" as="geometry" />
        </mxCell>
        <mxCell id="uvInf3OIVlEMV9nhA1Ra-6" value="More than one lookups can be done by columns." style="text;html=1;strokeColor=none;fillColor=none;align=center;verticalAlign=middle;whiteSpace=wrap;rounded=0;" vertex="1" parent="1">
          <mxGeometry x="550" y="190" width="230" height="30" as="geometry" />
        </mxCell>
        <mxCell id="uvInf3OIVlEMV9nhA1Ra-8" value="" style="endArrow=none;html=1;rounded=0;exitX=0;exitY=0.333;exitDx=0;exitDy=0;exitPerimeter=0;" edge="1" parent="1" source="3SwlQdrmeQlM3dl84obM-1">
          <mxGeometry width="50" height="50" relative="1" as="geometry">
            <mxPoint x="380" y="380" as="sourcePoint" />
            <mxPoint x="500" y="330" as="targetPoint" />
          </mxGeometry>
        </mxCell>
        <mxCell id="uvInf3OIVlEMV9nhA1Ra-9" value="" style="endArrow=none;html=1;rounded=0;exitX=0;exitY=0.333;exitDx=0;exitDy=0;exitPerimeter=0;" edge="1" parent="1">
          <mxGeometry width="50" height="50" relative="1" as="geometry">
            <mxPoint x="140" y="350" as="sourcePoint" />
            <mxPoint x="500" y="350" as="targetPoint" />
          </mxGeometry>
        </mxCell>
        <mxCell id="uvInf3OIVlEMV9nhA1Ra-10" value="&lt;div&gt;&amp;lt;-- Evaluation at &lt;svg xmlns:xlink=&quot;http://www.w3.org/1999/xlink&quot; viewBox=&quot;0 -1006.7 1150.7 1017.7&quot; role=&quot;img&quot; height=&quot;2.303ex&quot; width=&quot;2.603ex&quot; xmlns=&quot;http://www.w3.org/2000/svg&quot; style=&quot;vertical-align: -0.025ex;&quot;&gt;&lt;defs&gt;&lt;path d=&quot;M495 384Q495 406 514 424T555 443Q574 443 589 425T604 364Q604 334 592 278T555 155T483 38T377 -11Q297 -11 267 66Q266 68 260 61Q201 -11 125 -11Q15 -11 15 139Q15 230 56 325T123 434Q135 441 147 436Q160 429 160 418Q160 406 140 379T94 306T62 208Q61 202 61 187Q61 124 85 100T143 76Q201 76 245 129L253 137V156Q258 297 317 297Q348 297 348 261Q348 243 338 213T318 158L308 135Q309 133 310 129T318 115T334 97T358 83T393 76Q456 76 501 148T546 274Q546 305 533 325T508 357T495 384Z&quot; id=&quot;MJX-1-TEX-I-1D714&quot;&gt;&lt;/path&gt;&lt;path d=&quot;M121 647Q121 657 125 670T137 683Q138 683 209 688T282 694Q294 694 294 686Q294 679 244 477Q194 279 194 272Q213 282 223 291Q247 309 292 354T362 415Q402 442 438 442Q468 442 485 423T503 369Q503 344 496 327T477 302T456 291T438 288Q418 288 406 299T394 328Q394 353 410 369T442 390L458 393Q446 405 434 405H430Q398 402 367 380T294 316T228 255Q230 254 243 252T267 246T293 238T320 224T342 206T359 180T365 147Q365 130 360 106T354 66Q354 26 381 26Q429 26 459 145Q461 153 479 153H483Q499 153 499 144Q499 139 496 130Q455 -11 378 -11Q333 -11 305 15T277 90Q277 108 280 121T283 145Q283 167 269 183T234 206T200 217T182 220H180Q168 178 159 139T145 81T136 44T129 20T122 7T111 -2Q98 -11 83 -11Q66 -11 57 -1T48 16Q48 26 85 176T158 471L195 616Q196 629 188 632T149 637H144Q134 637 131 637T124 640T121 647Z&quot; id=&quot;MJX-1-TEX-I-1D458&quot;&gt;&lt;/path&gt;&lt;/defs&gt;&lt;g transform=&quot;scale(1,-1)&quot; stroke-width=&quot;0&quot; fill=&quot;currentColor&quot; stroke=&quot;currentColor&quot;&gt;&lt;g data-mml-node=&quot;math&quot;&gt;&lt;g data-mml-node=&quot;mstyle&quot;&gt;&lt;g data-mml-node=&quot;msup&quot;&gt;&lt;g data-mml-node=&quot;mi&quot;&gt;&lt;use xlink:href=&quot;#MJX-1-TEX-I-1D714&quot; data-c=&quot;1D714&quot;&gt;&lt;/use&gt;&lt;/g&gt;&lt;g transform=&quot;translate(655,413) scale(0.855)&quot; data-mml-node=&quot;mrow&quot;&gt;&lt;g data-mml-node=&quot;mi&quot;&gt;&lt;use xlink:href=&quot;#MJX-1-TEX-I-1D458&quot; data-c=&quot;1D458&quot;&gt;&lt;/use&gt;&lt;/g&gt;&lt;/g&gt;&lt;/g&gt;&lt;/g&gt;&lt;/g&gt;&lt;/g&gt;&lt;/svg&gt;&lt;/div&gt;" style="text;html=1;strokeColor=none;fillColor=none;align=center;verticalAlign=middle;whiteSpace=wrap;rounded=0;fontSize=8;" vertex="1" parent="1">
          <mxGeometry x="510" y="330" width="90" height="20" as="geometry" />
        </mxCell>
      </root>
    </mxGraphModel>
  </diagram>
</mxfile>
